<svg width="59" height="73" fill="none" xmlns="http://www.w3.org/2000/svg"><path fill-rule="evenodd" clip-rule="evenodd" d="M58.34 21.55a3 3 0 0 0-2.4-1.2H17.27l-2.47-7.39H3.06a3 3 0 1 0 0 6h7.42l13.5 40.29h25.16a3 3 0 0 0 0-6H28.3l-1.73-5.15H49.7a3 3 0 0 0 2.89-2.17l6.25-21.75a3 3 0 0 0-.49-2.63Zm-7.78 9.68h-4.81v-4.88h6.21l-1.4 4.88Zm-17.62-4.88v4.88h6.8v-4.88h-6.8Zm6.8 10.88v4.87h-6.8v-4.87h6.8Zm-12.8-6v-4.88h-7.66l1.64 4.88h6.02Zm-4.01 6h4.01v4.87h-2.38l-1.63-4.87Zm22.82 0v4.87h1.68l1.4-4.87h-3.08Z" fill="#fff"/><path d="M27.4 72.88a5.78 5.78 0 1 0 0-11.57 5.78 5.78 0 0 0 0 11.56ZM44.84 72.88a5.78 5.78 0 1 0 0-11.57 5.78 5.78 0 0 0 0 11.56ZM29.34 10.7l7.54 5.5a1.99 1.99 0 0 0 2.82-.5c.65-.94.43-2.23-.48-2.9l-2.37-1.72 9.43-5.1L50.91 18h4.35L49.2 2.3c-.2-.53-.63-.96-1.17-1.17a1.97 1.97 0 0 0-1.65.1L33.15 8.38l-3.03-2.2a1.99 1.99 0 0 0-2.74.4l-8.48 10.8c-.17.18-.3.39-.4.62h5.1l5.73-7.3Z" fill="#fff"/></svg>